{"title":"Harry Potter And The Half Blood Prince.avi","uid":5309980,"size":1499648810,"categoryP":"video","categoryS":"movies","magnet":"?xt=urn:btih:7445041bae55a774f7205e38e381027cd9d07d90&amp;dn=Harry+Potter+And+The+Half+Blood+Prince.avi&amp;tr=udp%3A%2F%2Ftracker.openbittorrent.com%3A80&amp;tr=udp%3A%2F%2Fopen.demonii.com%3A1337&amp;tr=udp%3A%2F%2Ftracker.coppersurfer.tk%3A6969&amp;tr=udp%3A%2F%2Fexodus.desync.com%3A6969","seeders":0,"leechers":1,"uploader":"jamesmc100","files":1,"time":1264527642,"description":"This is my first time uploading anything to TPB, but ive been using it for a while to download so thought it was time i gave something back.\n\nI couldnt find a decent copy of this so i have converted a HD copy i downloaded into SD avi for those who want it. \n\nThe file info is below, so please leave comments and let me know what you think.\n\n\n\nVideo  ID : 0 \nFormat : MPEG-4 Visual \nFormat settings, BVOP : Yes \nFormat settings, QPel : No \nFormat settings, GMC : No warppoints \nFormat settings, Matrix : Default (H.263) \nMuxing mode : Packed bitstream \nCodec ID : DX50 \nCodec ID/Hint : DivX 5 \nDuration : 2h 24mn \nBit rate : 1 211 Kbps \nWidth : 720 pixels \nHeight : 304 pixels \nDisplay aspect ratio : 2.35:1 \nFrame rate : 23.976 fps \nResolution : 8 bits \nColorimetry : 4:2:0 \nScan type : Progressive \nBits/(Pixel*Frame) : 0.231 \nStream size : 1.23 GiB (88%) \nWriting library : DivX 6.7.0 (UTC 2007-09-20) \n\nAudio  ID : 1 \nFormat : MPEG Audio \nFormat version : Version 1 \nFormat profile : Layer 3 \nCodec ID : 55 \nCodec ID/Hint : MP3 \nDuration : 2h 24mn \nBit rate mode : Constant \nBit rate : 160 Kbps \nChannel(s) : 2 channels \nSampling rate : 48.0 KHz \nStream size : 166 MiB (12%) \nAlignment : Split accross interleaves \nInterleave, duration : 42 ms (1.00 video frame) \nInterleave, preload duration : 500 ms \n","torrent":{"xt":"urn:btih:7445041bae55a774f7205e38e381027cd9d07d90","amp;dn":"Harry+Potter+And+The+Half+Blood+Prince.avi","amp;tr":["udp%3A%2F%2Ftracker.openbittorrent.com%3A80","udp%3A%2F%2Fopen.demonii.com%3A1337","udp%3A%2F%2Ftracker.coppersurfer.tk%3A6969","udp%3A%2F%2Fexodus.desync.com%3A6969"],"infoHash":"7445041bae55a774f7205e38e381027cd9d07d90","infoHashBuffer":{"type":"Buffer","data":[116,69,4,27,174,85,167,116,247,32,94,56,227,129,2,124,217,208,125,144]},"announce":[],"urlList":[]}}